<?xml version="1.0" encoding="UTF-8"?>
<svg version="1.1" xmlns="http://www.w3.org/2000/svg" width="96" height="96">
<path d="M0 0 C10.86283561 7.37735023 17.88570517 17.92586341 20.87060547 30.72631836 C23.47652569 45.05552577 20.3704038 58.27437894 12.21875 70.27734375 C4.67047633 79.99724377 -5.81164 86.02138501 -17.75 88.8125 C-33.16387564 90.46188755 -46.35807414 87.43581377 -58.75 77.8125 C-67.83025495 69.62925464 -74.37959301 57.75513682 -75.12109375 45.4296875 C-75.52643534 29.77890701 -71.73949159 17.58030255 -60.9453125 5.8515625 C-44.04777265 -10.20460607 -19.51966371 -11.48215513 0 0 Z M-41.75 26.8125 C-41.84993532 28.8730531 -41.88080906 30.9370259 -41.8828125 33 C-41.88410156 34.25554688 -41.88539062 35.51109375 -41.88671875 36.8046875 C-41.88462402 37.46178711 -41.8825293 38.11888672 -41.88037109 38.79589844 C-41.87502234 40.80411335 -41.88031691 42.81210459 -41.88671875 44.8203125 C-41.88542969 46.07585938 -41.88414063 47.33140625 -41.8828125 48.625 C-41.88168457 49.78644531 -41.88055664 50.94789062 -41.87939453 52.14453125 C-42.05337474 54.73313284 -42.05337474 54.73313284 -40.75 55.8125 C-38.6894469 55.91243532 -36.6254741 55.94330906 -34.5625 55.9453125 C-33.30695312 55.94660156 -32.05140625 55.94789062 -30.7578125 55.94921875 C-29.77216309 55.94607666 -29.77216309 55.94607666 -28.76660156 55.94287109 C-26.75838665 55.93752234 -24.75039541 55.94281691 -22.7421875 55.94921875 C-21.48664062 55.94792969 -20.23109375 55.94664063 -18.9375 55.9453125 C-17.77605469 55.94418457 -16.61460938 55.94305664 -15.41796875 55.94189453 C-12.82936716 56.11587474 -12.82936716 56.11587474 -11.75 54.8125 C-11.65006468 52.7519469 -11.61919094 50.6879741 -11.6171875 48.625 C-11.61589844 47.36945312 -11.61460938 46.11390625 -11.61328125 44.8203125 C-11.61537598 44.16321289 -11.6174707 43.50611328 -11.61962891 42.82910156 C-11.62497766 40.82088665 -11.61968309 38.81289541 -11.61328125 36.8046875 C-11.61457031 35.54914062 -11.61585937 34.29359375 -11.6171875 33 C-11.61831543 31.83855469 -11.61944336 30.67710938 -11.62060547 29.48046875 C-11.44662526 26.89186716 -11.44662526 26.89186716 -12.75 25.8125 C-14.8105531 25.71256468 -16.8745259 25.68169094 -18.9375 25.6796875 C-20.19304688 25.67839844 -21.44859375 25.67710938 -22.7421875 25.67578125 C-23.72783691 25.67892334 -23.72783691 25.67892334 -24.73339844 25.68212891 C-26.74161335 25.68747766 -28.74960459 25.68218309 -30.7578125 25.67578125 C-32.01335938 25.67707031 -33.26890625 25.67835937 -34.5625 25.6796875 C-35.72394531 25.68081543 -36.88539062 25.68194336 -38.08203125 25.68310547 C-40.67063284 25.50912526 -40.67063284 25.50912526 -41.75 26.8125 Z " fill="#F9F9F9" transform="translate(74.75,7.1875)"/>
</svg>
