<?xml version="1.0" standalone="no"?>
<!DOCTYPE svg PUBLIC "-//W3C//DTD SVG 20010904//EN"
 "http://www.w3.org/TR/2001/REC-SVG-20010904/DTD/svg10.dtd">
<svg version="1.0" xmlns="http://www.w3.org/2000/svg"
 width="100.000000pt" height="100.000000pt" viewBox="0 0 100.000000 100.000000"
 preserveAspectRatio="xMidYMid meet">
<metadata>
Created by potrace 1.14, written by Peter Selinger 2001-2017
</metadata>
<g transform="translate(0.000000,100.000000) scale(0.100000,-0.100000)"
fill="#000000" stroke="none">
<path d="M422 928 c-49 -27 -162 -125 -162 -141 0 -6 -6 -18 -14 -26 -7 -9
-26 -49 -41 -90 -22 -57 -28 -92 -28 -145 1 -95 12 -177 26 -190 17 -16 67
-47 67 -42 0 3 15 -1 34 -9 19 -8 42 -12 50 -9 9 3 21 -4 31 -20 10 -14 23
-26 30 -26 7 0 32 -9 56 -19 40 -18 45 -19 61 -4 10 9 18 22 18 28 0 9 18 5
58 -11 44 -17 66 -21 92 -15 19 4 38 8 43 9 22 4 66 35 99 69 35 36 58 80 90
168 20 52 16 188 -5 236 -20 45 -95 115 -150 138 -23 10 -67 30 -97 44 -83 38
-162 69 -190 73 -15 3 -44 -5 -68 -18z"/>
<path d="M134 289 c-22 -16 -56 -48 -77 -70 -32 -34 -36 -43 -27 -60 13 -24
94 -61 115 -53 9 4 18 -1 21 -11 4 -9 29 -27 57 -41 l51 -24 40 20 c21 10 44
16 50 13 6 -3 8 -3 4 2 -4 4 21 25 55 47 34 22 64 42 66 44 7 7 -58 64 -74 64
-8 0 -29 8 -47 18 -18 10 -55 26 -83 37 -27 10 -59 24 -70 32 -28 19 -37 17
-81 -18z"/>
</g>
</svg>
